<svg xmlns="http://www.w3.org/2000/svg" viewBox="0 0 550 400" width="551" height="401">
	<style>
		tspan { white-space:pre }
	</style>
	<g >
	</g>
	<g >
		<path fill="#ad7224" d="M242.33 283.17L242.33 116.94Q235.72 113.93 230.06 111.85Q224.72 109.54 218.74 107.92Q213.08 106.3 205.85 105.61Q198.93 104.68 189.5 104.68Q176.61 104.68 165.6 108.84Q154.6 113.01 145.48 120.17Q136.67 127.11 129.44 136.59Q122.52 146.07 117.8 156.7Q113.09 167.34 110.57 178.67Q108.37 189.76 108.37 200.4Q108.37 222.36 113.72 240.16Q119.06 257.74 129.44 270.22Q139.82 282.47 154.91 289.18Q170 295.65 189.5 295.65Q198.93 295.65 205.85 294.96Q213.08 294.03 218.74 292.41Q224.72 290.8 230.06 288.48Q235.72 286.17 242.33 283.17ZM440.75 200.4Q440.75 184.45 435.4 167.57Q430.06 150.46 419.68 136.59Q409.62 122.72 394.52 113.7Q379.43 104.68 360.25 104.68Q350.81 104.68 343.58 105.61Q336.66 106.3 330.69 107.92Q325.03 109.54 319.37 111.85Q314.02 113.93 307.42 116.94L307.42 283.17Q314.02 286.17 319.37 288.48Q325.03 290.8 330.69 292.41Q336.66 294.03 343.58 294.96Q350.81 295.65 360.25 295.65Q379.43 295.65 394.52 289.18Q409.62 282.47 419.68 270.22Q430.06 257.74 435.4 240.16Q440.75 222.36 440.75 200.4ZM513.39 200.4Q513.39 226.52 499.87 247.79Q486.66 268.83 465.28 283.86Q444.21 298.89 417.79 306.98Q391.69 315.07 365.91 315.07Q348.61 315.07 334.78 312.07Q320.94 308.83 307.42 305.59L307.42 326.86Q307.42 329.64 310.56 333.11Q314.02 336.34 320.94 336.8L359.62 338.65L359.62 359L190.13 359L190.13 338.65L228.81 336.8Q235.72 336.34 238.87 333.11Q242.33 329.64 242.33 326.86L242.33 305.59Q228.81 308.83 214.97 312.07Q201.45 315.07 183.84 315.07Q166.86 315.07 149.25 311.37Q131.64 307.67 115.29 300.74Q98.94 293.8 84.47 283.86Q70.01 273.69 59.32 260.97Q48.62 248.26 42.34 233Q36.36 217.74 36.36 200.4Q36.36 181.67 42.34 165.72Q48.62 149.77 59.32 137.05Q70.01 124.33 84.47 114.62Q98.94 104.91 115.29 98.44Q131.64 91.74 149.25 88.5Q166.86 85.26 183.84 85.26Q192.64 85.26 200.19 86.19Q207.74 86.88 214.66 88.27Q221.57 89.65 228.18 91.5Q235.1 93.12 242.33 94.74L242.33 73.47Q242.33 70.7 238.87 67.46Q235.72 63.99 228.81 63.53L190.13 61.68L190.13 41.33L359.62 41.33L359.62 61.68L320.94 63.53Q314.02 63.99 310.56 67.46Q307.42 70.7 307.42 73.47L307.42 94.74Q314.65 93.12 321.57 91.5Q328.49 89.65 335.41 88.27Q342.32 86.88 349.87 86.19Q357.42 85.26 365.91 85.26Q391.69 85.26 417.79 92.66Q444.21 100.06 465.28 114.62Q486.66 129.19 499.87 150.69Q513.39 172.19 513.39 200.4Z" />
	</g>
</svg>